<svg xmlns="http://www.w3.org/2000/svg" viewBox="0 0 1000 1080" width="1000" height="1080" role="img">
<title>Fig. 1B - REPLICA vs baselines on TE / LS / PS / VF</title>
<g fill="none" stroke="#B9BEC6" stroke-width="1.6">
<circle cx="500.0" cy="470.0" r="66.00"/>
<circle cx="500.0" cy="470.0" r="132.00"/>
<circle cx="500.0" cy="470.0" r="198.00"/>
<circle cx="500.0" cy="470.0" r="264.00"/>
</g>
<circle cx="500.0" cy="470.0" r="330.00" fill="none" stroke="#6C7480" stroke-width="2.6"/>
<g stroke="#B9BEC6" stroke-width="1.6">
<line x1="500.0" y1="470.0" x2="830.00" y2="470.00"/>
<line x1="500.0" y1="470.0" x2="500.00" y2="140.00"/>
<line x1="500.0" y1="470.0" x2="170.00" y2="470.00"/>
<line x1="500.0" y1="470.0" x2="500.00" y2="800.00"/>
</g>
<polygon points="797.00,470.00 500.00,206.00 239.30,470.00 500.00,776.90" fill="#FF0F0F" fill-opacity="0.13" stroke="#FF0F0F" stroke-width="5" stroke-linejoin="round"/>
<polygon points="770.60,470.00 500.00,301.70 394.40,470.00 500.00,753.80" fill="#F5B041" fill-opacity="0.13" stroke="#F5B041" stroke-width="5" stroke-linejoin="round"/>
<polygon points="747.50,470.00 500.00,341.30 414.20,470.00 500.00,714.20" fill="#003D0B" fill-opacity="0.13" stroke="#003D0B" stroke-width="5" stroke-linejoin="round"/>
<polygon points="724.40,470.00 500.00,334.70 414.20,470.00 500.00,611.90" fill="#940BE3" fill-opacity="0.13" stroke="#940BE3" stroke-width="5" stroke-linejoin="round"/>
<circle cx="797.00" cy="470.00" r="9" fill="#FFFFFF" stroke="#FF0F0F" stroke-width="5"/>
<circle cx="500.00" cy="206.00" r="9" fill="#FFFFFF" stroke="#FF0F0F" stroke-width="5"/>
<circle cx="239.30" cy="470.00" r="9" fill="#FFFFFF" stroke="#FF0F0F" stroke-width="5"/>
<circle cx="500.00" cy="776.90" r="9" fill="#FFFFFF" stroke="#FF0F0F" stroke-width="5"/>
<circle cx="770.60" cy="470.00" r="9" fill="#FFFFFF" stroke="#F5B041" stroke-width="5"/>
<circle cx="500.00" cy="301.70" r="9" fill="#FFFFFF" stroke="#F5B041" stroke-width="5"/>
<circle cx="394.40" cy="470.00" r="9" fill="#FFFFFF" stroke="#F5B041" stroke-width="5"/>
<circle cx="500.00" cy="753.80" r="9" fill="#FFFFFF" stroke="#F5B041" stroke-width="5"/>
<circle cx="747.50" cy="470.00" r="9" fill="#FFFFFF" stroke="#003D0B" stroke-width="5"/>
<circle cx="500.00" cy="341.30" r="9" fill="#FFFFFF" stroke="#003D0B" stroke-width="5"/>
<circle cx="414.20" cy="470.00" r="9" fill="#FFFFFF" stroke="#003D0B" stroke-width="5"/>
<circle cx="500.00" cy="714.20" r="9" fill="#FFFFFF" stroke="#003D0B" stroke-width="5"/>
<circle cx="724.40" cy="470.00" r="9" fill="#FFFFFF" stroke="#940BE3" stroke-width="5"/>
<circle cx="500.00" cy="334.70" r="9" fill="#FFFFFF" stroke="#940BE3" stroke-width="5"/>
<circle cx="414.20" cy="470.00" r="9" fill="#FFFFFF" stroke="#940BE3" stroke-width="5"/>
<circle cx="500.00" cy="611.90" r="9" fill="#FFFFFF" stroke="#940BE3" stroke-width="5"/>
<g font-family="IBM Plex Sans, Inter, Helvetica, sans-serif" font-size="54" font-weight="600" fill="#14181F">
<text x="862.0" y="488.0" text-anchor="start">TE</text>
<text x="500.0" y="104.0" text-anchor="middle">LS</text>
<text x="138.0" y="488.0" text-anchor="end">PS</text>
<text x="500.0" y="872.0" text-anchor="middle">VF</text>
</g>
<g font-family="IBM Plex Mono, monospace" font-size="50" fill="#5B6472" font-variant-numeric="tabular-nums">
<text x="602.1" y="327.6" text-anchor="middle">0.5</text>
<text x="708.1" y="201.2" text-anchor="middle">1.0</text>
</g>
<g font-family="IBM Plex Sans, Inter, Helvetica, sans-serif" font-size="50" fill="#14181F">
<circle cx="70" cy="952" r="13" fill="#FFFFFF" stroke="#FF0F0F" stroke-width="7"/>
<line x1="40" y1="952" x2="100" y2="952" stroke="#FF0F0F" stroke-width="6"/>
<text x="118" y="968">REPLICA (OURS)</text>
<circle cx="580" cy="952" r="13" fill="#FFFFFF" stroke="#F5B041" stroke-width="7"/>
<line x1="550" y1="952" x2="610" y2="952" stroke="#F5B041" stroke-width="6"/>
<text x="628" y="968">GPT-5</text>
<circle cx="70" cy="1032" r="13" fill="#FFFFFF" stroke="#003D0B" stroke-width="7"/>
<line x1="40" y1="1032" x2="100" y2="1032" stroke="#003D0B" stroke-width="6"/>
<text x="118" y="1048">Marker</text>
<circle cx="580" cy="1032" r="13" fill="#FFFFFF" stroke="#940BE3" stroke-width="7"/>
<line x1="550" y1="1032" x2="610" y2="1032" stroke="#940BE3" stroke-width="6"/>
<text x="628" y="1048">Qwen3-VL-30B</text>
</g>
</svg>